<svg viewBox="0 0 1200 400" xmlns="http://www.w3.org/2000/svg">
<rect width="1200" height="400" fill="#F5F7F7"/>
<g fill="#0B1114" opacity="0.10">
<circle cx="40" cy="40" r="2"/><circle cx="100" cy="40" r="2"/><circle cx="160" cy="40" r="2"/><circle cx="220" cy="40" r="2"/><circle cx="280" cy="40" r="2"/><circle cx="340" cy="40" r="2"/><circle cx="400" cy="40" r="2"/><circle cx="460" cy="40" r="2"/><circle cx="520" cy="40" r="2"/><circle cx="580" cy="40" r="2"/><circle cx="640" cy="40" r="2"/><circle cx="700" cy="40" r="2"/><circle cx="760" cy="40" r="2"/><circle cx="820" cy="40" r="2"/><circle cx="880" cy="40" r="2"/><circle cx="940" cy="40" r="2"/><circle cx="1000" cy="40" r="2"/><circle cx="1060" cy="40" r="2"/><circle cx="1120" cy="40" r="2"/><circle cx="1160" cy="40" r="2"/>
<circle cx="40" cy="100" r="2"/><circle cx="100" cy="100" r="2"/><circle cx="160" cy="100" r="2"/><circle cx="220" cy="100" r="2"/><circle cx="280" cy="100" r="2"/><circle cx="340" cy="100" r="2"/><circle cx="400" cy="100" r="2"/><circle cx="460" cy="100" r="2"/><circle cx="520" cy="100" r="2"/><circle cx="580" cy="100" r="2"/><circle cx="640" cy="100" r="2"/><circle cx="700" cy="100" r="2"/><circle cx="760" cy="100" r="2"/><circle cx="820" cy="100" r="2"/><circle cx="880" cy="100" r="2"/><circle cx="940" cy="100" r="2"/><circle cx="1000" cy="100" r="2"/><circle cx="1060" cy="100" r="2"/><circle cx="1120" cy="100" r="2"/><circle cx="1160" cy="100" r="2"/>
<circle cx="40" cy="160" r="2"/><circle cx="100" cy="160" r="2"/><circle cx="160" cy="160" r="2"/><circle cx="220" cy="160" r="2"/><circle cx="280" cy="160" r="2"/><circle cx="340" cy="160" r="2"/><circle cx="400" cy="160" r="2"/><circle cx="460" cy="160" r="2"/><circle cx="520" cy="160" r="2"/><circle cx="580" cy="160" r="2"/><circle cx="640" cy="160" r="2"/><circle cx="700" cy="160" r="2"/><circle cx="760" cy="160" r="2"/><circle cx="820" cy="160" r="2"/><circle cx="880" cy="160" r="2"/><circle cx="940" cy="160" r="2"/><circle cx="1000" cy="160" r="2"/><circle cx="1060" cy="160" r="2"/><circle cx="1120" cy="160" r="2"/><circle cx="1160" cy="160" r="2"/>
<circle cx="40" cy="220" r="2"/><circle cx="100" cy="220" r="2"/><circle cx="160" cy="220" r="2"/><circle cx="220" cy="220" r="2"/><circle cx="280" cy="220" r="2"/><circle cx="340" cy="220" r="2"/><circle cx="400" cy="220" r="2"/><circle cx="460" cy="220" r="2"/><circle cx="520" cy="220" r="2"/><circle cx="580" cy="220" r="2"/><circle cx="640" cy="220" r="2"/><circle cx="700" cy="220" r="2"/><circle cx="760" cy="220" r="2"/><circle cx="820" cy="220" r="2"/><circle cx="880" cy="220" r="2"/><circle cx="940" cy="220" r="2"/><circle cx="1000" cy="220" r="2"/><circle cx="1060" cy="220" r="2"/><circle cx="1120" cy="220" r="2"/><circle cx="1160" cy="220" r="2"/>
<circle cx="40" cy="280" r="2"/><circle cx="100" cy="280" r="2"/><circle cx="160" cy="280" r="2"/><circle cx="220" cy="280" r="2"/><circle cx="280" cy="280" r="2"/><circle cx="340" cy="280" r="2"/><circle cx="400" cy="280" r="2"/><circle cx="460" cy="280" r="2"/><circle cx="520" cy="280" r="2"/><circle cx="580" cy="280" r="2"/><circle cx="640" cy="280" r="2"/><circle cx="700" cy="280" r="2"/><circle cx="760" cy="280" r="2"/><circle cx="820" cy="280" r="2"/><circle cx="880" cy="280" r="2"/><circle cx="940" cy="280" r="2"/><circle cx="1000" cy="280" r="2"/><circle cx="1060" cy="280" r="2"/><circle cx="1120" cy="280" r="2"/><circle cx="1160" cy="280" r="2"/>
<circle cx="40" cy="340" r="2"/><circle cx="100" cy="340" r="2"/><circle cx="160" cy="340" r="2"/><circle cx="220" cy="340" r="2"/><circle cx="280" cy="340" r="2"/><circle cx="340" cy="340" r="2"/><circle cx="400" cy="340" r="2"/><circle cx="460" cy="340" r="2"/><circle cx="520" cy="340" r="2"/><circle cx="580" cy="340" r="2"/><circle cx="640" cy="340" r="2"/><circle cx="700" cy="340" r="2"/><circle cx="760" cy="340" r="2"/><circle cx="820" cy="340" r="2"/><circle cx="880" cy="340" r="2"/><circle cx="940" cy="340" r="2"/><circle cx="1000" cy="340" r="2"/><circle cx="1060" cy="340" r="2"/><circle cx="1120" cy="340" r="2"/><circle cx="1160" cy="340" r="2"/>
</g>
<text x="600" y="215" font-family="Space Grotesk, sans-serif" font-size="72" font-weight="700" fill="#10202B" text-anchor="middle"><tspan fill="#17B8A6">&lt;</tspan>HMF<tspan fill="#17B8A6">/&gt;</tspan></text>
</svg>
